:FULLY-SPECIFIED
:FORCE-ALL-JOINTS-BE-3DOF
:DEGREES
356
root 9.38828 16.9064 15.6357 6.33877 6.97376 -0.743998
lfemur -12.7382 6.05963 -17.8888
ltibia 42.7607 -0 0
lfoot -9.35333 6.52911 -0.551029
ltoes -4.75392 0 0
rfemur -26.2622 5.17433 24.5875
rtibia 35.3078 -0 0
rfoot -15.7586 1.94157 -0.107925
rtoes -18.13 0 0
lowerback -6.18383 -1.79266 -1.92117
upperback -1.08071 -2.32826 2.48636
thorax 2.58653 -1.18441 3.3727
lowerneck -19.7101 -5.87643 -12.7541
upperneck 21.2878 -7.62119 12.985
head 11.1819 -3.00587 5.70814
lclavicle 5.63572e-15 -3.69733e-14 -1.63749e-30
lhumerus -40.144 -25.5009 100.53
lradius 32.4744 -0 0
lwrist 11.6723 0 0
lhand -12.2627 -23.0065 -0.0545803
lfingers 7.12502 -0 0
lthumb 13.8021 6.49007 -0.0587572
rclavicle 5.63572e-15 -3.69733e-14 -1.63749e-30
rhumerus -39.6316 14.3044 -84.0585
rradius 39.5143 -0 0
rwrist -20.2632 0 0
rhand -30.1344 -24.6342 -0.00416997
rfingers 7.12502 -0 0
rthumb -3.44722 -54.5825 -0.00420376
357
root 9.38119 16.9289 15.7675 6.31766 6.80963 -0.898502
lfemur -14.5946 6.05693 -17.9262
ltibia 44.5206 -0 0
lfoot -9.91604 7.00366 -0.520745
ltoes -4.30193 0 0
rfemur -25.4277 5.27964 24.9387
rtibia 35.0454 -0 0
rfoot -16.2147 1.9329 -0.101932
rtoes -18.1081 0 0
lowerback -6.10594 -1.65899 -1.77589
upperback -1.06074 -2.16045 2.4959
thorax 2.54267 -1.0993 3.32058
lowerneck -19.7613 -5.912 -12.7299
upperneck 21.3236 -7.66823 12.9529
head 11.2101 -3.02697 5.68519
lclavicle 4.4203e-15 -3.7498e-14 -1.53876e-30
lhumerus -40.6227 -24.9344 100.306
lradius 32.1404 -0 0
lwrist 11.7792 0 0
lhand -12.5087 -22.9215 -0.0517307
lfingers 7.12502 -0 0
lthumb 13.5652 6.59325 -0.0554975
rclavicle 4.4203e-15 -3.7498e-14 -1.53876e-30
rhumerus -39.1712 14.6436 -84.0851
rradius 39.951 -0 0
rwrist -20.5046 0 0
rhand -30.2156 -24.6017 -0.00400618
rfingers 7.12502 -0 0
rthumb -3.52564 -54.5489 -0.00403349
358
root 9.37434 16.9502 15.8852 6.298 6.64461 -1.05249
lfemur -16.4165 6.04967 -17.9604
ltibia 46.2199 -0 0
lfoot -10.4624 7.46669 -0.486426
ltoes -3.86775 0 0
rfemur -24.5892 5.37887 25.2857
rtibia 34.7706 -0 0
rfoot -16.652 1.92653 -0.0957632
rtoes -18.0856 0 0
lowerback -6.03155 -1.52634 -1.63125
upperback -1.04105 -1.9937 2.50585
thorax 2.50101 -1.01478 3.26917
lowerneck -19.811 -5.94664 -12.7065
upperneck 21.3587 -7.71402 12.9218
head 11.2377 -3.04754 5.66291
lclavicle 3.23665e-15 -3.79999e-14 -1.43154e-30
lhumerus -41.0949 -24.3753 100.082
lradius 31.8119 -0 0
lwrist 11.8794 0 0
lhand -12.7446 -22.8376 -0.0485108
lfingers 7.12502 -0 0
lthumb 13.3379 6.69441 -0.0518351
rclavicle 3.23665e-15 -3.79999e-14 -1.43154e-30
rhumerus -38.7181 14.9727 -84.1097
rradius 40.3747 -0 0
rwrist -20.7372 0 0
rhand -30.2941 -24.5696 -0.00379656
rfingers 7.12502 -0 0
rthumb -3.60138 -54.5158 -0.0038179
359
root 9.36777 16.9702 15.9877 6.27994 6.47921 -1.20572
lfemur -18.1975 6.03785 -17.9908
ltibia 47.8508 -0 0
lfoot -10.9896 7.9164 -0.448601
ltoes -3.45366 0 0
rfemur -23.7479 5.47196 25.6273
rtibia 34.4826 -0 0
rfoot -17.0682 1.92311 -0.0894022
rtoes -18.0625 0 0
lowerback -5.96115 -1.39501 -1.48756
upperback -1.02172 -1.8284 2.51623
thorax 2.46177 -0.931043 3.21862
lowerneck -19.8588 -5.98029 -12.6842
upperneck 21.3929 -7.75849 12.8917
head 11.2645 -3.06754 5.64142
lclavicle 2.08891e-15 -3.84775e-14 -1.31712e-30
lhumerus -41.56 -23.8253 99.8587
lradius 31.4901 -0 0
lwrist 11.9724 0 0
lhand -12.9692 -22.7553 -0.0449621
lfingers 7.12502 -0 0
lthumb 13.1216 6.79322 -0.0478226
rclavicle 2.08891e-15 -3.84775e-14 -1.31712e-30
rhumerus -38.2738 15.2904 -84.1327
rradius 40.7834 -0 0
rwrist -20.9597 0 0
rhand -30.3693 -24.538 -0.00354563
rfingers 7.12502 -0 0
rthumb -3.67409 -54.4833 -0.00356156
360
root 9.36148 16.9888 16.0741 6.26361 6.31392 -1.35798
lfemur -19.9314 6.02156 -18.0163
ltibia 49.406 -0 0
lfoot -11.4951 8.35101 -0.407864
ltoes -3.06194 0 0
rfemur -22.9052 5.5589 25.9627
rtibia 34.1806 -0 0
rfoot -17.4607 1.92328 -0.0828255
rtoes -18.0385 0 0
lowerback -5.89522 -1.26527 -1.34515
upperback -1.00285 -1.66493 2.52706
thorax 2.42521 -0.848275 3.16908
lowerneck -19.9046 -6.01286 -12.6631
upperneck 21.426 -7.80153 12.8628
head 11.2903 -3.08692 5.62082
lclavicle 9.81213e-16 -3.89295e-14 -1.19684e-30
lhumerus -42.0175 -23.286 99.6377
lradius 31.1765 -0 0
lwrist 12.0578 0 0
lhand -13.181 -22.6748 -0.0411311
lfingers 7.12502 -0 0
lthumb 12.9176 6.88935 -0.0435185
rclavicle 9.81213e-16 -3.89295e-14 -1.19684e-30
rhumerus -37.8397 15.5956 -84.1543
rradius 41.1753 -0 0
rwrist -21.1708 0 0
rhand -30.4411 -24.5073 -0.00325876
rfingers 7.12502 -0 0
rthumb -3.74341 -54.4517 -0.0032699
361
root 9.35548 17.0058 16.1434 6.24915 6.14925 -1.50904
lfemur -21.6118 6.00089 -18.0362
ltibia 50.8777 -0 0
lfoot -11.9761 8.76873 -0.364862
ltoes -2.69487 0 0
rfemur -22.0623 5.63973 26.2907
rtibia 33.8641 -0 0
rfoot -17.827 1.92771 -0.0760045
rtoes -18.0135 0 0
lowerback -5.83426 -1.1374 -1.20433
upperback -0.984529 -1.50365 2.53834
thorax 2.39156 -0.766663 3.12069
lowerneck -19.9479 -6.04429 -12.6434
upperneck 21.4579 -7.84306 12.8354
head 11.3151 -3.10564 5.60123
lclavicle -8.22938e-17 -3.93545e-14 -1.07216e-30
lhumerus -42.4667 -22.7591 99.4208
lradius 30.8722 -0 0
lwrist 12.1351 0 0
lhand -13.3786 -22.5961 -0.0370686
lfingers 7.12502 -0 0
lthumb 12.7273 6.98246 -0.0389865
rclavicle -8.22938e-17 -3.93545e-14 -1.07216e-30
rhumerus -37.4171 15.8868 -84.1748
rradius 41.5483 -0 0
rwrist -21.3694 0 0
rhand -30.509 -24.4775 -0.00294207
rfingers 7.12502 -0 0
rthumb -3.80899 -54.421 -0.00294908
362
root 9.34979 17.021 16.1948 6.23669 5.98568 -1.65867
lfemur -23.2324 5.97599 -18.0496
ltibia 52.2584 -0 0
lfoot -12.4299 9.16781 -0.320295
ltoes -2.35472 0 0
rfemur -21.2206 5.71453 26.6105
rtibia 33.5321 -0 0
rfoot -18.1645 1.93704 -0.0689084
rtoes -17.9874 0 0
lowerback -5.77876 -1.01167 -1.0654
upperback -0.966852 -1.34495 2.55009
thorax 2.36107 -0.686393 3.0736
lowerneck -19.9885 -6.07451 -12.6252
upperneck 21.4883 -7.883 12.8096
head 11.3387 -3.12368 5.58274
lclavicle -1.09747e-15 -3.97513e-14 -9.4454e-31
lhumerus -42.9071 -22.2462 99.2093
lradius 30.5787 -0 0
lwrist 12.2039 0 0
lhand -13.5606 -22.5197 -0.0328295
lfingers 7.12502 -0 0
lthumb 12.552 7.07224 -0.0342948
rclavicle -1.09747e-15 -3.97513e-14 -9.4454e-31
rhumerus -37.0074 16.1628 -84.1945
rradius 41.9005 -0 0
rwrist -21.5541 0 0
rhand -30.5727 -24.449 -0.00260237
rfingers 7.12502 -0 0
rthumb -3.87047 -54.3917 -0.00260592
363
root 9.34442 17.0344 16.2273 6.22636 5.82373 -1.80664
lfemur -24.7869 5.94704 -18.0557
ltibia 53.5406 -0 0
lfoot -12.8538 9.54651 -0.2749
ltoes -2.04379 0 0
rfemur -20.3814 5.78343 26.9209
rtibia 33.1841 -0 0
rfoot -18.4708 1.95192 -0.0615064
rtoes -17.9598 0 0
lowerback -5.72921 -0.888351 -0.928691
upperback -0.949911 -1.18921 2.56232
thorax 2.33399 -0.607649 3.02796
lowerneck -20.026 -6.10343 -12.6087
upperneck 21.5172 -7.92125 12.7857
head 11.3611 -3.14099 5.56548
lclavicle -2.06018e-15 -4.01184e-14 -8.15508e-31
lhumerus -43.3379 -21.7489 99.0047
lradius 30.2973 -0 0
lwrist 12.2636 0 0
lhand -13.7257 -22.4456 -0.0284723
lfingers 7.12502 -0 0
lthumb 12.393 7.15836 -0.0295153
rclavicle -2.06018e-15 -4.01184e-14 -8.15508e-31
rhumerus -36.6121 16.4224 -84.2137
rradius 42.2301 -0 0
rwrist -21.7237 0 0
rhand -30.6318 -24.4218 -0.00224704
rfingers 7.12502 -0 0
rthumb -3.92751 -54.3637 -0.00224782
